<svg data-name="Bars/Search/Search Bar – Active"
    height="31"
    id="Bars_Search_Search_Bar_Active"
    viewBox="0 0 245.052 31"
    width="245.052"
    xmlns="http://www.w3.org/2000/svg">
    <g
        data-name="iPhone/Search Bars/Search Bar (Active)"
        id="iPhone_Search_Bars_Search_Bar_Active_">
        <rect
            data-name="Search Field"
            fill="rgba(142,142,147,0.12)"
            height="31"
            id="Search_Field"
            rx="10"
            width="245.052" />
        <g
            id="Content"
            transform="translate(8 4.5)">
            <rect
                fill="#9b9b9b"
                height="21"
                id="Cursror"
                rx="1"
                transform="translate(68 0.5)"
                width="2" />
            <text
                data-name="↳ Input"
                font-family="SegoeUI, Segoe UI"
                font-size="17"
                id="_Input"
                letter-spacing="-0.024em"
                transform="translate(21 18)">
                <tspan
                    x="0"
                    y="0">A
                </tspan>
            </text>
            <g
                data-name="Resources/Search"
                id="Resources_Search"
                transform="translate(0 4)">
                <path
                    d="M13.173,14a.831.831,0,0,1-.6-.256L8.745,9.912l0,0a5.373,5.373,0,0,1-3.221,1.062H5.5a5.51,5.51,0,0,1-3.91-9.382A5.476,5.476,0,0,1,5.437,0H5.46a5.532,5.532,0,0,1,5.5,5.508A5.386,5.386,0,0,1,9.91,8.74l3.833,3.834A.827.827,0,0,1,13.173,14ZM5.444,1.1A4.35,4.35,0,0,0,1.1,5.472,4.441,4.441,0,0,0,5.5,9.878h.017A4.351,4.351,0,0,0,9.864,5.5,4.439,4.439,0,0,0,5.464,1.1Z"
                    fill="#8e8e93"
                    id="Search"
                    transform="translate(0 0)" />
            </g>
        </g>
    </g>
</svg>
