<svg height="20"
    viewBox="0 0 33.292 20"
    width="33.292"
    xmlns="http://www.w3.org/2000/svg">
    <defs>
        <style>
            .prefix__cls-1{stroke:#000;stroke-width:3px}.prefix__cls-2{stroke:none}.prefix__cls-3{fill:none}
        </style>
    </defs>
    <g
        data-name="Group 22"
        id="prefix__Group_22"
        transform="rotate(180 16.646 10)">
        <g
            data-name="Group 23"
            id="prefix__Group_23">
            <g
                class="prefix__cls-1"
                data-name="Rectangle 7"
                id="prefix__Rectangle_7">
                <rect
                    class="prefix__cls-2"
                    height="4"
                    rx="2"
                    width="23" />
                <rect
                    class="prefix__cls-3"
                    height="1"
                    rx=".5"
                    width="20"
                    x="1.5"
                    y="1.5" />
            </g>
            <g
                data-name="Path 3"
                id="prefix__Path_3">
                <path
                    class="prefix__cls-2"
                    d="M21 2.5H2c-.276 0-.5-.224-.5-.5s.224-.5.5-.5h19c.276 0 .5.224.5.5s-.224.5-.5.5z"
                    transform="translate(10.292 8)" />
                <path
                    style="stroke:none"
                    d="M2 0h19c1.105 0 2 .895 2 2s-.895 2-2 2H2C.895 4 0 3.105 0 2s.895-2 2-2zm19 0h0z"
                    transform="translate(10.292 8)" />
            </g>
            <g
                class="prefix__cls-1"
                data-name="Rectangle 7"
                id="prefix__Rectangle_7-2"
                transform="translate(0 16)">
                <rect
                    class="prefix__cls-2"
                    height="4"
                    rx="2"
                    width="23" />
                <rect
                    class="prefix__cls-3"
                    height="1"
                    rx=".5"
                    width="20"
                    x="1.5"
                    y="1.5" />
            </g>
        </g>
    </g>
</svg>
