<svg height="642.09"
    viewBox="0 0 1241.744 642.09"
    width="1241.744"
    xmlns="http://www.w3.org/2000/svg">
    <g
        data-name="Group 50"
        id="Group_50"
        transform="translate(0 -1794.175)">
        <g
            data-name="Group 48"
            id="Group_48">
            <g
                data-name="Group 45"
                id="Group_45">
                <g
                    data-name="Group 43"
                    id="Group_43">
                    <g
                        data-name="Group 42"
                        id="Group_42">
                        <g
                            data-name="Path 14"
                            fill="#fff"
                            id="Path_14"
                            transform="translate(1241.744 1851) rotate(90)">
                            <path
                                d="M 584.7642822265625 619.94873046875 C 582.7239990234375 618.958251953125 576.3143310546875 615.7886962890625 565.5667114257813 609.961181640625 C 553.3938598632813 603.3609008789063 533.0084228515625 591.904296875 505.0207824707031 574.806884765625 C 473.5636291503906 555.5899658203125 439.111328125 533.3101806640625 402.6209411621094 508.58642578125 C 357.0080261230469 477.6817321777344 308.0639343261719 442.8494262695313 257.1481018066406 405.05712890625 C 243.5597076416016 394.9710693359375 230.2211761474609 384.2597351074219 217.5030975341797 373.2205810546875 C 205.3379364013672 362.661376953125 193.4170227050781 351.5216064453125 182.0716247558594 340.1107482910156 C 171.2537841796875 329.2305297851563 160.6736297607422 317.8167419433594 150.6249389648438 306.1864318847656 C 141.0786285400391 295.137451171875 131.7621765136719 283.6039733886719 122.9344787597656 271.9063720703125 C 92.39417266845703 231.4372863769531 66.22909545898438 187.1952819824219 45.16609191894531 140.4092864990234 C 36.89086151123047 122.0279006958008 29.39309310913086 103.2048263549805 22.88093948364258 84.46297454833984 C 17.67109298706055 69.46890258789063 13.07678604125977 54.49282455444336 9.225786209106445 39.95082473754883 C 3.379417181015015 17.8741512298584 1.03458833694458 3.469605922698975 0.5800452828407288 0.4999774992465973 L 584.5 0.4999774992465973 L 584.7642822265625 619.94873046875 Z"
                                stroke="none" />
                            <path
                                d="M 584.2639770507813 619.14794921875 L 584.0001831054688 0.9999775290489197 L 1.163937330245972 0.9999775290489197 C 1.788835525512695 4.950698852539063 4.184557437896729 18.96627044677734 9.717555046081543 39.85459136962891 C 13.5667085647583 54.38620758056641 18.15863227844238 69.3514404296875 23.36570930480957 84.33467102050781 C 29.87409400939941 103.0622863769531 37.36732482910156 121.8709030151367 45.63740158081055 140.2380523681641 C 66.68578338623047 186.9850616455078 92.83147430419922 231.1898193359375 123.3481674194336 271.62451171875 C 132.1687164306641 283.3116760253906 141.4774017333984 294.8348388671875 151.0157928466797 305.8739624023438 C 161.0559387207031 317.4938354492188 171.6270904541016 328.8972778320313 182.4356384277344 339.7676696777344 C 193.7711639404297 351.168212890625 205.6816253662109 362.2978210449219 217.8360900878906 372.8475952148438 C 230.5430145263672 383.8767395019531 243.8697052001953 394.5785217285156 257.4461059570313 404.6555786132813 C 308.348388671875 442.4378967285156 357.279541015625 477.2612915039063 402.8804931640625 508.1582946777344 C 439.3614807128906 532.8761596679688 473.8048706054688 555.1507568359375 505.2540283203125 574.3634643554688 C 533.2345581054688 591.4571533203125 553.6149291992188 602.91162109375 565.7847900390625 609.5106811523438 C 575.4915771484375 614.7741088867188 581.658935546875 617.868896484375 584.2639770507813 619.14794921875 M 585.2646484375 620.7442626953125 C 585.2646484375 620.7442626953125 480.1306457519531 571.18896484375 256.85009765625 405.4585876464844 C 33.56955337524414 239.7282867431641 1.652644277783111e-05 -2.249849785584956e-05 1.652644277783111e-05 -2.249849785584956e-05 L 584.999755859375 -2.249849785584956e-05 L 585.2646484375 620.7442626953125 Z"
                                fill="#707070"
                                stroke="none" />
                        </g>
                        <g
                            data-name="Path 16"
                            fill="rgba(255,255,255,0.73)"
                            id="Path_16"
                            transform="translate(1241.744 1813) rotate(90)">
                            <path
                                d="M 622.4996337890625 619.9697265625 C 620.39208984375 619.009521484375 613.5499877929688 615.835693359375 602.0072021484375 609.9562377929688 C 589.0492553710938 603.3558349609375 567.3490600585938 591.8990478515625 537.556396484375 574.8013916015625 C 504.0703125 555.584228515625 467.39599609375 533.3040771484375 428.5520629882813 508.5797424316406 C 379.997314453125 477.6745300292969 327.8964538574219 442.8415832519531 273.6966857910156 405.0484313964844 C 259.231689453125 394.9621276855469 245.0326995849609 384.2504272460938 231.4942321777344 373.2109680175781 C 218.5443878173828 362.6515197753906 205.8546142578125 351.5115051269531 193.7773895263672 340.1004333496094 C 182.2619171142578 329.2200622558594 170.9993896484375 317.8061218261719 160.3026885986328 306.1756591796875 C 150.1407623291016 295.1266784667969 140.2236175537109 283.5932006835938 130.8266906738281 271.8955993652344 C 98.3173828125 231.4269714355469 70.46553802490234 187.1855926513672 48.04484558105469 140.4005126953125 C 39.23615264892578 122.0196685791016 31.25507736206055 103.1971282958984 24.3232307434082 84.45574951171875 C 18.77753829956055 69.46221160888672 13.88715362548828 54.48659133911133 9.787846565246582 39.94513320922852 C 3.567655086517334 17.87972450256348 1.071098804473877 3.479034662246704 0.5855893492698669 0.4999774992465973 L 622.2182006835938 0.4999774992465973 L 622.4996337890625 619.9697265625 Z"
                                stroke="none" />
                            <path
                                d="M 621.999267578125 619.1904296875 L 621.7184448242188 0.9999775290489197 L 1.175341606140137 0.9999775290489197 C 1.84272837638855 4.962080478668213 4.393373489379883 18.97134017944336 10.27861499786377 39.84313201904297 C 14.37584590911865 54.37374496459961 19.26361465454102 69.33805084228516 24.80623054504395 84.32028198242188 C 31.73399925231934 103.0468215942383 39.71007537841797 121.854362487793 48.51300048828125 140.2205200195313 C 70.91807556152344 186.9656677246094 98.74907684326172 231.1691284179688 131.2330017089844 271.6029663085938 C 140.6222381591797 283.2901306152344 150.5313110351563 294.8133544921875 160.6848449707031 305.8526000976563 C 171.3726196289063 317.4725952148438 182.6256103515625 328.8763732910156 194.1313781738281 339.7470397949219 C 206.1983795166016 351.1479797363281 218.8773803710938 362.2781372070313 231.8161468505859 372.8282775878906 C 245.3431549072266 383.8581237792969 259.5299987792969 394.5606079101563 273.9826965332031 404.6382751464844 C 328.1690673828125 442.422119140625 380.2572937011719 477.2468872070313 428.80029296875 508.1450500488281 C 467.6349182128906 532.86376953125 504.300537109375 555.13916015625 537.7786254882813 574.3524169921875 C 567.5643310546875 591.4466552734375 589.259521484375 602.9014282226563 602.2145385742188 609.5006713867188 C 612.6914672851563 614.8375244140625 619.2947387695313 617.9447631835938 621.999267578125 619.1904296875 M 623 620.7442626953125 C 623 620.7442626953125 511.0873718261719 571.18896484375 273.4107055664063 405.4585876464844 C 35.73400115966797 239.7282867431641 0 -2.249849785584956e-05 0 -2.249849785584956e-05 L 622.718017578125 -2.249849785584956e-05 L 623 620.7442626953125 Z"
                                fill="#707070"
                                stroke="none" />
                        </g>
                        <g
                            data-name="Path 17"
                            fill="rgba(255,255,255,0.73)"
                            id="Path_17"
                            transform="translate(1241.744 1794.175) rotate(90)">
                            <path
                                d="M 641.3248291015625 619.9791870117188 C 639.1846923828125 619.0331420898438 632.1270141601563 615.8574829101563 620.186767578125 609.9539794921875 C 606.8370971679688 603.3535766601563 584.4810180664063 591.896728515625 553.787841796875 574.7989501953125 C 519.2896728515625 555.5816040039063 481.5068359375 533.30126953125 441.48876953125 508.5768127441406 C 391.4663391113281 477.6712951660156 337.7906799316406 442.8380432128906 281.9526062011719 405.0445556640625 C 267.0502624511719 394.9580383300781 252.4220123291016 384.2462158203125 238.4741821289063 373.20654296875 C 225.1329345703125 362.64697265625 212.0595092773438 351.5068664550781 199.6172637939453 340.095703125 C 187.7536773681641 329.2153015136719 176.1507568359375 317.8013000488281 165.1307678222656 306.1707153320313 C 154.6617584228516 295.1217041015625 144.4449310302734 283.5882263183594 134.7640075683594 271.8905334472656 C 101.2724304199219 231.4220428466797 72.57901763916016 187.1809692382813 49.48093032836914 140.3963012695313 C 40.40618133544922 122.0157165527344 32.18401336669922 103.1933822631836 25.04268074035645 84.45230102539063 C 19.32951354980469 69.45896148681641 14.29134750366211 54.4836311340332 10.06826400756836 39.9423828125 C 3.661956548690796 17.88339614868164 1.089548110961914 3.484487295150757 0.5883520245552063 0.500048041343689 L 641.0349731445313 0.500048041343689 L 641.3248291015625 619.9791870117188 Z"
                                stroke="none" />
                            <path
                                d="M 640.824462890625 619.2095336914063 L 640.5352172851563 1.000048041343689 L 1.18109917640686 1.000048041343689 C 1.869814872741699 4.967832565307617 4.497781753540039 18.97391700744629 10.55851459503174 39.83754730224609 C 14.77943134307861 54.36771392822266 19.81484794616699 69.33155059814453 25.52484703063965 84.31330108642578 C 32.66176605224609 103.0393829345703 40.87876510620117 121.8463821411133 49.94759750366211 140.2120513916016 C 73.02943420410156 186.9564666748047 101.7012634277344 231.1593780517578 135.1665954589844 271.5928955078125 C 144.8396759033203 283.2800598144531 155.0482635498047 294.8032836914063 165.5086822509766 305.8426208496094 C 176.5195159912109 317.4627990722656 188.1128540039063 328.8666381835938 199.9665069580078 339.737548828125 C 212.3983459472656 351.1387023925781 225.4607696533203 362.26904296875 238.7908477783203 372.8195495605469 C 252.7270202636719 383.8497009277344 267.343017578125 394.5524597167969 282.2328491210938 404.6304626464844 C 338.0577697753906 442.4150390625 391.7208557128906 477.2403869628906 441.731689453125 508.1391296386719 C 481.7404174804688 532.8582153320313 519.5145874023438 555.1339721679688 554.0049438476563 574.3475341796875 C 584.6912841796875 591.4419555664063 607.0423583984375 602.8969116210938 620.3890380859375 609.4962158203125 C 631.2506713867188 614.8667602539063 638.0714721679688 617.9796142578125 640.824462890625 619.2095336914063 M 641.8251953125 620.7443237304688 C 641.8251953125 620.7443237304688 526.5309448242188 571.18896484375 281.6723327636719 405.4586181640625 C 36.81376266479492 239.7283020019531 1.432291719538625e-05 4.801432442036457e-05 1.432291719538625e-05 4.801432442036457e-05 L 641.5347900390625 4.801432442036457e-05 L 641.8251953125 620.7443237304688 Z"
                                fill="#707070"
                                stroke="none" />
                        </g>
                    </g>
                </g>
            </g>
        </g>
        <g
            data-name="Group 49"
            id="Group_49">
            <g
                data-name="Group 46"
                id="Group_46">
                <g
                    data-name="Group 44"
                    id="Group_44"
                    transform="translate(0 1794.175)">
                    <g
                        data-name="Group 42"
                        id="Group_42-2">
                        <g
                            data-name="Path 14"
                            fill="#fff"
                            id="Path_14-2"
                            transform="translate(620.744 56.825) rotate(90)">
                            <path
                                d="M 584.5 620.2442626953125 L 0.5800452828407288 620.2442626953125 C 1.03458833694458 617.274658203125 3.379417181015015 602.8701171875 9.225786209106445 580.79345703125 C 13.07678604125977 566.25146484375 17.67109298706055 551.275390625 22.88093948364258 536.2813110351563 C 29.39309310913086 517.5394287109375 36.89086151123047 498.7163696289063 45.16609191894531 480.3349914550781 C 66.22909545898438 433.5489807128906 92.39417266845703 389.3069763183594 122.9344787597656 348.837890625 C 131.7621765136719 337.1402893066406 141.0786285400391 325.6068115234375 150.6249389648438 314.5578308105469 C 160.6736297607422 302.9275207519531 171.2537841796875 291.5137329101563 182.0716247558594 280.6335144042969 C 193.4170227050781 269.22265625 205.3379364013672 258.0828857421875 217.5030975341797 247.5236663818359 C 230.2211761474609 236.4845123291016 243.5597076416016 225.7732086181641 257.1481018066406 215.6871337890625 C 308.0639343261719 177.8948211669922 357.0080261230469 143.0625152587891 402.6209411621094 112.1578216552734 C 439.111328125 87.43405151367188 473.5636291503906 65.15428161621094 505.0207824707031 45.93736267089844 C 533.0084228515625 28.8399772644043 553.3938598632813 17.38336181640625 565.5667114257813 10.78305435180664 C 576.3143310546875 4.955594062805176 582.7239990234375 1.786007761955261 584.7642822265625 0.7955042123794556 L 584.5 620.2442626953125 Z"
                                stroke="none" />
                            <path
                                d="M 584.2639770507813 1.5963134765625 C 581.658935546875 2.8753662109375 575.4915771484375 5.97015380859375 565.7847900390625 11.23358154296875 C 553.6149291992188 17.8326416015625 533.2345581054688 29.287109375 505.2540283203125 46.38079833984375 C 473.8048706054688 65.593505859375 439.3614807128906 87.86810302734375 402.8804931640625 112.5859680175781 C 357.279541015625 143.4829711914063 308.348388671875 178.3063659667969 257.4461059570313 216.0886840820313 C 243.8697204589844 226.1657409667969 230.5430297851563 236.8675231933594 217.8360900878906 247.8966674804688 C 205.681640625 258.4464416503906 193.7711791992188 269.5760498046875 182.4356384277344 280.9765930175781 C 171.6271057128906 291.8469848632813 161.0559387207031 303.2504272460938 151.0157775878906 314.8703002929688 C 141.4773864746094 325.909423828125 132.168701171875 337.4325866699219 123.3481750488281 349.1197509765625 C 92.83148193359375 389.554443359375 66.685791015625 433.7592163085938 45.63739013671875 480.5062255859375 C 37.3673095703125 498.8733520507813 29.87408447265625 517.6820068359375 23.36572265625 536.4096069335938 C 18.15863037109375 551.392822265625 13.56671142578125 566.3580322265625 9.717529296875 580.8896484375 C 4.1845703125 601.7780151367188 1.788818359375 615.7935791015625 1.1639404296875 619.7442626953125 L 584.0001220703125 619.7442626953125 L 584.2639770507813 1.5963134765625 M 585.2646484375 0 L 584.9996948242188 620.7442626953125 L 0 620.7442626953125 C 0 620.7442626953125 33.569580078125 381.0159912109375 256.85009765625 215.2856750488281 C 480.130615234375 49.5552978515625 585.2646484375 0 585.2646484375 0 Z"
                                fill="#707070"
                                stroke="none" />
                        </g>
                        <g
                            data-name="Path 16"
                            fill="rgba(255,255,255,0.73)"
                            id="Path_16-2"
                            transform="translate(620.744 18.825) rotate(90)">
                            <path
                                d="M 622.2182006835938 620.2442626953125 L 0.5855893492698669 620.2442626953125 C 1.071098804473877 617.2651977539063 3.567655086517334 602.8645629882813 9.787846565246582 580.7991333007813 C 13.88715362548828 566.2576904296875 18.77753829956055 551.2820434570313 24.3232307434082 536.2885131835938 C 31.25507736206055 517.547119140625 39.23615264892578 498.7245788574219 48.04484558105469 480.34375 C 70.46553802490234 433.5586547851563 98.3173828125 389.3172912597656 130.8266906738281 348.8486633300781 C 140.2236175537109 337.1510620117188 150.1407623291016 325.6175842285156 160.3026885986328 314.568603515625 C 170.9993896484375 302.9381408691406 182.2619171142578 291.5242004394531 193.7773895263672 280.6438293457031 C 205.8546142578125 269.2327575683594 218.5443878173828 258.0927429199219 231.4942321777344 247.5332794189453 C 245.0326995849609 236.4938201904297 259.231689453125 225.7821350097656 273.6966857910156 215.6958160400391 C 327.8964538574219 177.9026641845703 379.997314453125 143.0697479248047 428.5520629882813 112.1645126342773 C 467.39599609375 87.44020843505859 504.0703125 65.16005706787109 537.556396484375 45.94290161132813 C 567.3490600585938 28.8452091217041 589.0492553710938 17.3884391784668 602.0072021484375 10.78805446624756 C 613.5499877929688 4.908589839935303 620.39208984375 1.734767079353333 622.4996337890625 0.7745416760444641 L 622.2182006835938 620.2442626953125 Z"
                                stroke="none" />
                            <path
                                d="M 621.999267578125 1.5538330078125 C 619.2947387695313 2.79949951171875 612.6914672851563 5.90673828125 602.2145385742188 11.24359130859375 C 589.259521484375 17.84283447265625 567.5643310546875 29.297607421875 537.7786254882813 46.391845703125 C 504.300537109375 65.6051025390625 467.6349182128906 87.8804931640625 428.80029296875 112.5992126464844 C 380.25732421875 143.4973754882813 328.1690673828125 178.3221435546875 273.9826965332031 216.1059875488281 C 259.5299987792969 226.1836547851563 245.3431396484375 236.8861389160156 231.816162109375 247.9159851074219 C 218.8773803710938 258.4661254882813 206.1983947753906 269.5962829589844 194.1313781738281 280.9972229003906 C 182.6256103515625 291.8678894042969 171.3726196289063 303.2716674804688 160.6848449707031 314.8916625976563 C 150.5313110351563 325.930908203125 140.6222229003906 337.4541320800781 131.2330017089844 349.1412963867188 C 98.74908447265625 389.5751342773438 70.9180908203125 433.7785949707031 48.51300048828125 480.5237426757813 C 39.7100830078125 498.889892578125 31.7340087890625 517.6974487304688 24.80621337890625 536.4239501953125 C 19.26361083984375 551.4061889648438 14.3758544921875 566.3705444335938 10.27862548828125 580.901123046875 C 4.39337158203125 601.77294921875 1.84271240234375 615.7821655273438 1.17535400390625 619.7442626953125 L 621.7184448242188 619.7442626953125 L 621.999267578125 1.5538330078125 M 623 0 L 622.718017578125 620.7442626953125 L 0 620.7442626953125 C 0 620.7442626953125 35.7340087890625 381.0159912109375 273.4107055664063 215.2856750488281 C 511.08740234375 49.5552978515625 623 0 623 0 Z"
                                fill="#707070"
                                stroke="none" />
                        </g>
                        <g
                            data-name="Path 17"
                            fill="rgba(255,255,255,0.73)"
                            id="Path_17-2"
                            transform="translate(620.744 0) rotate(90)">
                            <path
                                d="M 641.0349731445313 620.2443237304688 L 0.5883520245552063 620.2443237304688 C 1.089548110961914 617.2598876953125 3.661956548690796 602.8609619140625 10.06826400756836 580.8019409179688 C 14.29134750366211 566.2607421875 19.32951354980469 551.285400390625 25.04268074035645 536.2920532226563 C 32.18401336669922 517.5509033203125 40.40618133544922 498.7286376953125 49.48093032836914 480.3480529785156 C 72.57901763916016 433.5632934570313 101.2724304199219 389.3222045898438 134.7640075683594 348.8537292480469 C 144.4449310302734 337.1561279296875 154.6617584228516 325.6226196289063 165.1307678222656 314.5735473632813 C 176.1507568359375 302.9430541992188 187.7536773681641 291.529052734375 199.6172637939453 280.6486206054688 C 212.0595092773438 269.2374572753906 225.1329345703125 258.0972900390625 238.4741821289063 247.5377960205078 C 252.4220123291016 236.4981384277344 267.0502624511719 225.7863006591797 281.9526062011719 215.6997985839844 C 337.7906799316406 177.9062957763672 391.4663391113281 143.0729675292969 441.48876953125 112.1674652099609 C 481.5068359375 87.44304656982422 519.2896728515625 65.16271209716797 553.787841796875 45.94538116455078 C 584.4810180664063 28.84763145446777 606.8370971679688 17.39071464538574 620.186767578125 10.79038143157959 C 632.1270141601563 4.88688325881958 639.1846923828125 1.711198925971985 641.3248291015625 0.7651840448379517 L 641.0349731445313 620.2443237304688 Z"
                                stroke="none" />
                            <path
                                d="M 640.824462890625 1.53466796875 C 638.076171875 2.762451171875 631.2720336914063 5.8675537109375 620.427734375 11.22894287109375 C 607.085205078125 17.825439453125 584.73974609375 29.2763671875 554.057373046875 46.3675537109375 C 519.564453125 65.581298828125 481.7860107421875 87.8585205078125 441.7715148925781 112.5804748535156 C 391.7491760253906 143.4854736328125 338.0726928710938 178.3191223144531 282.2328491210938 216.1138000488281 C 267.343017578125 226.1918029785156 252.7270202636719 236.8945617675781 238.7908325195313 247.9247131347656 C 225.4607543945313 258.4752197265625 212.3983459472656 269.6055603027344 199.9665222167969 281.0067138671875 C 188.1128540039063 291.8776245117188 176.5195007324219 303.2814636230469 165.5086669921875 314.9016418457031 C 155.0482788085938 325.9409790039063 144.8396911621094 337.4642028808594 135.1665954589844 349.1513671875 C 101.7012939453125 389.5848999023438 73.0294189453125 433.7877807617188 49.94757080078125 480.5322265625 C 40.8787841796875 498.8978881835938 32.6617431640625 517.7048950195313 25.52484130859375 536.4309692382813 C 19.8148193359375 551.4127197265625 14.7794189453125 566.3765258789063 10.55853271484375 580.90673828125 C 4.497802734375 601.7703247070313 1.86981201171875 615.7764282226563 1.18109130859375 619.7442016601563 L 640.53515625 619.7442016601563 L 640.824462890625 1.53466796875 M 641.8251953125 -6.103515625e-05 L 641.53466796875 620.7442016601563 L 0 620.7442016601563 C 0 620.7442016601563 36.81378173828125 381.0159606933594 281.6723327636719 215.28564453125 C 526.5309448242188 49.5552978515625 641.8251953125 -6.103515625e-05 641.8251953125 -6.103515625e-05 Z"
                                fill="#707070"
                                stroke="none" />
                        </g>
                    </g>
                </g>
            </g>
        </g>
    </g>
</svg>
